HIERARCHY
ROOT Hips
{
	OFFSET 0.000000 0.000000 0.000000
	CHANNELS 6 Xposition Yposition Zposition Zrotation Yrotation Xrotation 
	JOINT LowerBack
	{
		OFFSET 0.000000 0.000000 0.000000
		CHANNELS 3 Zrotation Yrotation Xrotation
		JOINT Spine
		{
			OFFSET 0.028270 2.035590 -0.193380
			CHANNELS 3 Zrotation Yrotation Xrotation
			JOINT Spine1
			{
				OFFSET 0.056720 2.048850 -0.042750
				CHANNELS 3 Zrotation Yrotation Xrotation
				JOINT Neck
				{
					OFFSET 0.000000 0.000000 0.000000
					CHANNELS 3 Zrotation Yrotation Xrotation
					JOINT Neck1
					{
						OFFSET -0.054170 1.746240 0.172020
						CHANNELS 3 Zrotation Yrotation Xrotation
						JOINT Head
						{
							OFFSET 0.104070 1.761360 -0.123970
							CHANNELS 3 Zrotation Yrotation Xrotation
							End Site
							{
								OFFSET 0.000000 0.000000 0.000000
							}
						}
					}
				}
				JOINT LeftShoulder
				{
					OFFSET 0.000000 0.000000 0.000000
					CHANNELS 3 Zrotation Yrotation Xrotation
					JOINT LeftArm
					{
						OFFSET 3.362410 1.200890 -0.311210
						CHANNELS 3 Zrotation Yrotation Xrotation
						JOINT LeftForeArm
						{
							OFFSET 4.983000 -0.000000 -0.000000
							CHANNELS 3 Zrotation Yrotation Xrotation
							JOINT LeftHand
							{
								OFFSET 3.483560 -0.000000 -0.000000
								CHANNELS 3 Zrotation Yrotation Xrotation
								JOINT LeftFingerBase
								{
									OFFSET 0.000000 0.000000 0.000000
									CHANNELS 3 Zrotation Yrotation Xrotation
									JOINT LeftHandIndex1
									{
										OFFSET 0.715260 -0.000000 -0.000000
										CHANNELS 3 Zrotation Yrotation Xrotation
										End Site
										{
											OFFSET 0.000000 0.000000 0.000000
										}
									}
								}
								JOINT LThumb
								{
									OFFSET 0.000000 0.000000 0.000000
									CHANNELS 3 Zrotation Yrotation Xrotation
									End Site
									{
										OFFSET 0.000000 0.000000 0.000000
									}
								}
							}
						}
					}
				}
				JOINT RightShoulder
				{
					OFFSET 0.000000 0.000000 0.000000
					CHANNELS 3 Zrotation Yrotation Xrotation
					JOINT RightArm
					{
						OFFSET -3.136600 1.374050 -0.404650
						CHANNELS 3 Zrotation Yrotation Xrotation
						JOINT RightForeArm
						{
							OFFSET -5.241900 -0.000000 -0.000000
							CHANNELS 3 Zrotation Yrotation Xrotation
							JOINT RightHand
							{
								OFFSET -3.444170 -0.000000 -0.000000
								CHANNELS 3 Zrotation Yrotation Xrotation
								JOINT RightFingerBase
								{
									OFFSET 0.000000 0.000000 0.000000
									CHANNELS 3 Zrotation Yrotation Xrotation
									JOINT RightHandIndex1
									{
										OFFSET -0.622530 -0.000000 -0.000000
										CHANNELS 3 Zrotation Yrotation Xrotation
										End Site
										{
											OFFSET 0.000000 0.000000 0.000000
										}
									}
								}
								JOINT RThumb
								{
									OFFSET 0.000000 0.000000 0.000000
									CHANNELS 3 Zrotation Yrotation Xrotation
									End Site
									{
										OFFSET 0.000000 0.000000 0.000000
									}
								}
							}
						}
					}
				}
			}
		}
	}
}
}
MOTION
Frames: 18
Frame Time: 0.008333
2.837325 17.280450 1.263183 178.028910 -59.848138 -173.158921 -0.261582 -7.195009 -9.169764 0.910735 -7.099403 -4.309370 -1.069971 -7.254035 0.253189 14.196070 -17.105238 -7.272093 0.294791 0.012593 0.205308 0.000000 0.000000 0.000000 19.648728 -3.061228 2.704133 -3.088110 -39.874358 -35.983322 0.377614 -9.852185 -0.056194 7.337646 -4.850921 -0.354746 -0.167417 0.550924 -0.000000 0.000000 0.000000 0.000000 0.000000 0.000000 0.000000 3.189422 -16.438005 -2.943009 29.705039 29.087806 -1.972699 -178.656429 58.525863 179.880057 -12.723901 3.794261 -0.501848 0.243832 -0.619295 -0.000000 0.000000 0.000000 0.000000 0.000000 0.000000 0.000000 
2.819360 17.286083 1.254780 177.784242 -59.350982 -173.055499 -0.163940 -7.034879 -9.268025 0.929676 -6.958067 -4.314717 -1.013435 -7.128488 0.407051 13.709577 -17.567562 -7.448777 0.294671 0.016487 0.161158 0.000000 0.000000 0.000000 19.781614 -1.262648 2.115410 -6.773128 -41.327006 -32.441559 0.742540 -15.443278 -0.056757 6.746145 -2.739557 -0.196715 -0.125494 0.534776 -0.000000 0.000000 0.000000 0.000000 0.000000 0.000000 0.000000 2.653740 -16.638825 -2.901143 29.521427 27.602853 -2.269549 -178.681566 57.851537 179.880843 -12.699881 3.865498 -0.509337 0.249804 -0.620245 -0.000000 0.000000 0.000000 0.000000 0.000000 0.000000 0.000000 
2.800846 17.289321 1.244199 177.633708 -58.534599 -173.051610 0.071322 -6.728581 -9.408950 0.937971 -6.690454 -4.351318 -1.055506 -6.871410 0.512044 13.210054 -18.027444 -7.523361 0.268678 0.016435 0.146327 0.000000 0.000000 0.000000 19.674159 0.255893 1.499681 -10.958184 -41.133210 -26.773639 0.976455 -24.005542 -0.051963 5.843856 0.111205 -0.020572 -0.078961 0.513333 -0.000000 0.000000 0.000000 0.000000 0.000000 0.000000 0.000000 2.149288 -16.760967 -2.770547 29.223154 26.016253 -2.549684 -178.754195 57.113949 179.881652 -12.670848 3.964771 -0.520195 0.259958 -0.623612 0.000000 0.000000 0.000000 0.000000 0.000000 0.000000 0.000000 
2.782936 17.289937 1.232174 177.565631 -57.476849 -173.141427 0.405913 -6.297774 -9.567305 0.925626 -6.314084 -4.414910 -1.213345 -6.496497 0.540067 12.734218 -18.434339 -7.467124 0.213038 0.011464 0.168292 0.000000 0.000000 0.000000 19.193655 1.143630 0.972841 -14.535528 -39.217406 -21.397925 0.987871 -34.701059 -0.038220 4.406575 2.763736 0.088315 -0.026287 0.494796 0.000000 0.000000 0.000000 0.000000 0.000000 0.000000 0.000000 1.714920 -16.786379 -2.548686 28.836304 24.270726 -2.813064 -178.878695 56.320218 179.882745 -12.630081 4.083028 -0.532905 0.274039 -0.628545 0.000000 0.000000 0.000000 0.000000 0.000000 0.000000 0.000000 
2.766243 17.287729 1.219789 177.571123 -56.260267 -173.310272 0.789870 -5.788165 -9.696829 0.900916 -5.866245 -4.485040 -1.439622 -6.042898 0.511551 12.320277 -18.773165 -7.329804 0.133543 0.002950 0.212190 0.000000 0.000000 0.000000 18.332226 1.510575 0.575645 -17.055061 -36.265626 -17.329692 0.803497 -46.220756 -0.016852 2.433161 4.408648 0.083137 0.027794 0.483189 -0.000000 0.000000 0.000000 0.000000 0.000000 0.000000 0.000000 1.381837 -16.711885 -2.270218 28.351167 22.400982 -3.087314 -179.038732 55.497557 179.884268 -12.576347 4.213137 -0.546575 0.290393 -0.633860 0.000000 0.000000 0.000000 0.000000 0.000000 0.000000 0.000000 
2.751024 17.282539 1.208283 177.634973 -54.969890 -173.538944 1.192868 -5.251887 -9.752256 0.880625 -5.391722 -4.532887 -1.670747 -5.559587 0.491626 11.991233 -19.073675 -7.213266 0.047385 -0.005800 0.248403 0.000000 0.000000 0.000000 17.157281 1.870525 0.289681 -18.667517 -33.329423 -14.415955 0.543343 -57.256579 0.006579 0.199143 4.840147 0.005409 0.078518 0.478354 0.000000 0.000000 0.000000 0.000000 0.000000 0.000000 0.000000 1.160511 -16.593941 -1.993428 27.768860 20.551090 -3.395688 -179.204682 54.691517 179.886254 -12.509602 4.349510 -0.560024 0.306381 -0.638313 0.000000 0.000000 0.000000 0.000000 0.000000 0.000000 0.000000 
2.737054 17.274290 1.198383 177.729854 -53.693646 -173.802692 1.600555 -4.732068 -9.719752 0.873903 -4.929553 -4.544479 -1.873188 -5.087741 0.521847 11.733943 -19.357937 -7.174832 -0.031839 -0.012634 0.260496 0.000000 0.000000 0.000000 15.858298 2.506940 0.084559 -19.868520 -30.837134 -12.289313 0.300589 -67.249020 0.027851 -2.007982 4.471505 -0.073687 0.125117 0.477343 0.000000 0.000000 0.000000 0.000000 0.000000 0.000000 0.000000 1.021419 -16.487458 -1.757339 27.142824 18.839791 -3.720938 -179.355720 53.951547 179.888684 -12.423610 4.481703 -0.571772 0.319846 -0.641020 0.000000 0.000000 0.000000 0.000000 0.000000 0.000000 0.000000 
2.723702 17.263202 1.190333 177.830798 -52.509882 -174.076541 2.006224 -4.264078 -9.607699 0.884745 -4.513806 -4.518597 -2.033949 -4.662289 0.615830 11.518098 -19.635567 -7.231653 -0.097334 -0.016702 0.243948 0.000000 0.000000 0.000000 14.594465 3.487369 -0.064449 -21.059254 -28.770887 -10.714076 0.118052 -76.100591 0.045545 -4.020578 3.809269 -0.121327 0.168276 0.477712 0.000000 0.000000 0.000000 0.000000 0.000000 0.000000 0.000000 0.918571 -16.424839 -1.581230 26.541701 17.348979 -4.028131 -179.481835 53.311741 179.891530 -12.309555 4.596363 -0.579637 0.329521 -0.641503 0.000000 0.000000 0.000000 0.000000 0.000000 0.000000 0.000000 
2.710462 17.249795 1.183886 177.918022 -51.480171 -174.337315 2.402070 -3.874808 -9.436629 0.913971 -4.170945 -4.462951 -2.148171 -4.310254 0.764450 11.312727 -19.908088 -7.376140 -0.148992 -0.018139 0.201599 0.000000 0.000000 0.000000 13.472543 4.725122 -0.174624 -22.486552 -26.860848 -9.576969 0.013523 -83.939486 0.059909 -5.781845 3.203438 -0.142467 0.208410 0.477219 0.000000 0.000000 0.000000 0.000000 0.000000 0.000000 0.000000 0.812313 -16.413454 -1.469018 26.018266 16.118837 -4.285845 -179.581936 52.789195 179.894721 -12.161109 4.680725 -0.582020 0.335041 -0.639612 0.000000 0.000000 0.000000 0.000000 0.000000 0.000000 0.000000 
2.696864 17.234763 1.178563 177.981801 -50.645995 -174.566081 2.775263 -3.581468 -9.229019 0.960239 -3.917670 -4.387588 -2.212504 -4.049187 0.951836 11.100797 -20.178482 -7.598119 -0.189374 -0.017340 0.137153 0.000000 0.000000 0.000000 12.547485 6.116812 -0.260332 -24.256203 -24.847229 -8.833714 179.998611 -89.096190 -179.928476 -7.288170 2.802210 -0.153468 0.245413 0.474052 0.000000 0.000000 0.000000 0.000000 0.000000 0.000000 0.000000 0.685912 -16.451249 -1.418124 25.594995 15.161635 -4.479967 -179.658573 52.386933 179.898166 -11.978432 4.727132 -0.577931 0.336649 -0.635396 0.000000 0.000000 0.000000 0.000000 0.000000 0.000000 0.000000 
2.682696 17.218722 1.173770 178.021059 -50.028747 -174.750746 3.107726 -3.390618 -9.007363 1.020113 -3.759565 -4.304358 -2.223668 -3.885716 1.155626 10.879781 -20.450466 -7.884144 -0.222823 -0.014916 0.055272 0.000000 0.000000 0.000000 11.850804 7.533485 -0.334317 -26.384465 -22.482874 -8.488146 -179.920698 -82.876428 -179.919315 -8.550522 2.615241 -0.166498 0.278922 0.466931 0.000000 0.000000 0.000000 0.000000 0.000000 0.000000 0.000000 0.544221 -16.526282 -1.419757 25.266334 14.457089 -4.611790 -179.716365 52.096488 179.901747 -11.768869 4.735017 -0.568065 0.335088 -0.629137 0.000000 0.000000 0.000000 0.000000 0.000000 0.000000 0.000000 
2.667786 17.202271 1.168936 178.043337 -49.632423 -174.885754 3.378635 -3.298129 -8.790846 1.088203 -3.691344 -4.223728 -2.180289 -3.815576 1.355294 10.662905 -20.728780 -8.222295 -0.252376 -0.011368 -0.039964 0.000000 0.000000 0.000000 11.381602 8.877322 -0.405848 -28.795817 -19.633056 -8.569487 -179.750885 -77.334115 -179.912692 -9.568181 2.571615 -0.183824 0.308365 0.455928 0.000000 0.000000 0.000000 0.000000 0.000000 0.000000 0.000000 0.410222 -16.623217 -1.463145 25.009948 13.958517 -4.695932 -179.758984 51.904083 179.905326 -11.546194 4.711857 -0.554021 0.331268 -0.621277 0.000000 0.000000 0.000000 0.000000 0.000000 0.000000 0.000000 
2.652656 17.185780 1.163566 178.054084 -49.447465 -174.972695 3.567305 -3.290204 -8.593642 1.156865 -3.698224 -4.152910 -2.086837 -3.824570 1.536292 10.476322 -21.016931 -8.600681 -0.278340 -0.006969 -0.144823 0.000000 0.000000 0.000000 11.103260 10.094917 -0.476640 -31.331887 -16.302478 -9.106201 -179.517841 -72.457407 -179.908852 -10.320432 2.564325 -0.199213 0.332791 0.442872 0.000000 0.000000 0.000000 0.000000 0.000000 0.000000 0.000000 0.317776 -16.726659 -1.537074 24.800863 13.599659 -4.754922 -179.788475 51.786953 179.908765 -11.326597 4.670229 -0.538299 0.326077 -0.612364 0.000000 0.000000 0.000000 0.000000 0.000000 0.000000 0.000000 
2.637651 17.169492 1.157446 178.064819 -49.455447 -175.019518 3.661119 -3.344156 -8.424824 1.216731 -3.757745 -4.093577 -1.959978 -3.889933 1.697388 10.352077 -21.316187 -9.008466 -0.297529 -0.001653 -0.256355 0.000000 0.000000 0.000000 10.936129 11.209647 -0.538223 -33.768934 -12.683793 -10.080750 -179.263581 -68.296445 -179.907925 -10.771553 2.486237 -0.201825 0.350335 0.431109 0.000000 0.000000 0.000000 0.000000 0.000000 0.000000 0.000000 0.304122 -16.828826 -1.632906 24.623042 13.307660 -4.814401 -179.804760 51.725200 179.911936 -11.126531 4.625165 -0.523195 0.320142 -0.602885 0.000000 0.000000 0.000000 0.000000 0.000000 0.000000 0.000000 
2.623610 17.153453 1.150515 178.080050 -49.631065 -175.038727 3.657520 -3.432055 -8.288628 1.258116 -3.843378 -4.043098 -1.826245 -3.983963 1.846327 10.318112 -21.625309 -9.432386 -0.305201 0.004789 -0.371385 0.000000 0.000000 0.000000 10.791591 12.286361 -0.579260 -35.890389 -9.076719 -11.400229 -179.031080 -64.909668 -179.909815 -10.886612 2.252180 -0.181820 0.358362 0.424451 0.000000 0.000000 0.000000 0.000000 0.000000 0.000000 0.000000 0.395636 -16.930767 -1.743534 24.481104 13.015294 -4.896833 -179.808101 51.692718 179.914747 -10.959062 4.590965 -0.510907 0.313980 -0.593360 0.000000 0.000000 0.000000 0.000000 0.000000 0.000000 0.000000 
2.611163 17.137661 1.143014 178.106711 -49.945667 -175.046615 3.566984 -3.524795 -8.183315 1.273840 -3.928402 -3.995934 -1.715248 -4.078266 1.995852 10.388503 -21.940644 -9.857771 -0.297610 0.012517 -0.486630 0.000000 0.000000 0.000000 10.599489 13.413692 -0.594809 -37.542805 -5.821925 -12.894364 -178.848016 -62.341713 -179.914175 -10.652656 1.825047 -0.136767 0.354324 0.425608 0.000000 0.000000 0.000000 0.000000 0.000000 0.000000 0.000000 0.601169 -17.041720 -1.863816 24.395804 12.672858 -5.018447 -179.799853 51.670431 179.917127 -10.833482 4.579465 -0.502933 0.307988 -0.584263 0.000000 0.000000 0.000000 0.000000 0.000000 0.000000 0.000000 
2.600976 17.122044 1.135130 178.147757 -50.368697 -175.057412 3.403008 -3.599171 -8.105239 1.259965 -3.991513 -3.949998 -1.648681 -4.149918 2.146395 10.560432 -22.254677 -10.261118 -0.276145 0.021084 -0.596124 0.000000 0.000000 0.000000 10.353662 14.588077 -0.590486 -38.682798 -3.073689 -14.388652 -178.724315 -60.549518 -179.920540 -10.096991 1.198245 -0.071569 0.337865 0.435329 0.000000 0.000000 0.000000 0.000000 0.000000 0.000000 0.000000 0.908942 -17.161202 -1.984272 24.393149 12.241810 -5.186449 -179.785250 51.638313 179.919048 -10.753887 4.596751 -0.499963 0.302768 -0.576115 0.000000 0.000000 0.000000 0.000000 0.000000 0.000000 0.000000 
2.593689 17.106554 1.127345 178.205656 -50.870434 -175.087800 3.185231 -3.639401 -8.043814 1.217063 -4.018546 -3.902748 -1.638038 -4.183524 2.297330 10.818392 -22.555659 -10.623953 -0.243719 0.029987 -0.695230 0.000000 0.000000 0.000000 10.070374 15.808492 -0.577748 -39.334085 -0.938361 -15.723445 -178.656518 -59.468447 -179.928311 -9.279119 0.430975 -0.000055 0.310488 0.451780 0.000000 0.000000 0.000000 0.000000 0.000000 0.000000 0.000000 1.293205 -17.285602 -2.099080 24.500130 11.708088 -5.402969 -179.768631 51.589763 179.920512 -10.720250 4.646109 -0.502393 0.298644 -0.569333 0.000000 0.000000 0.000000 0.000000 0.000000 0.000000 0.000000 
